<svg width="22" height="15" viewBox="0 0 22 15" fill="none" xmlns="http://www.w3.org/2000/svg">
    <path d="M2 0.5C0.89543 0.5 0 1.39543 0 2.5V12.5C0 13.6046 0.895431 14.5 2 14.5H20C21.1046 14.5 22 13.6046 22 12.5V2.5C22 1.39543 21.1046 0.5 20 0.5H2ZM14.8905 4.5C14.8905 4.47878 14.9136 4.4574 14.9369 4.4574C14.9377 4.4574 14.9385 4.4574 14.9392 4.45741C14.9874 4.45746 15.021 4.4979 15.0502 4.53622V4.53622C15.2242 4.7645 15.505 4.88489 15.7903 4.85344L15.9095 4.8403C15.9326 4.8403 15.9559 4.8403 15.979 4.86153V4.86153C16.0115 4.89144 15.9637 4.94405 15.9357 4.9783L15.8586 5.07282C15.7213 5.24096 15.6995 5.47542 15.8032 5.66606L15.8752 5.79836C15.8826 5.81185 15.8864 5.82697 15.8864 5.84234V5.84234C15.8864 5.86809 15.8763 5.89586 15.8511 5.90143C15.8463 5.90251 15.8414 5.90313 15.8365 5.90349C15.8236 5.90443 15.8106 5.90195 15.7983 5.898L15.6002 5.83468C15.404 5.77199 15.1894 5.8161 15.0339 5.95104L14.9072 6.061C14.8817 6.0832 14.8551 6.11664 14.8212 6.11664V6.11664H14.7981C14.775 6.11664 14.7518 6.09542 14.7518 6.07404L14.7545 6.01015C14.7669 5.7254 14.6109 5.45995 14.356 5.33227L14.3284 5.31841C14.2866 5.29748 14.2423 5.26977 14.2423 5.22304V5.22304V5.22304C14.2423 5.17729 14.311 5.17444 14.3552 5.1626L14.3766 5.15687C14.6575 5.08157 14.8612 4.83854 14.8863 4.54883L14.8905 4.5ZM12.5516 3.98944L12.652 3.89179C12.8301 3.71859 12.8884 3.45623 12.8004 3.22393L12.7849 3.18309C12.7685 3.13953 12.7488 3.0849 12.7831 3.05339V3.05339V3.05339C12.8213 3.01833 12.8765 3.06441 12.9236 3.08605L12.9631 3.10416C13.2105 3.21781 13.4994 3.1928 13.7236 3.03835L13.8252 2.96835C13.8483 2.94713 13.8715 2.94713 13.8946 2.96835C13.9177 2.98958 13.9177 3.01095 13.9177 3.03217L13.911 3.08335C13.8727 3.37689 14.007 3.66621 14.256 3.82635V3.82635C14.2928 3.85004 14.3342 3.87735 14.3345 3.92115C14.3345 3.92269 14.3345 3.92423 14.3345 3.92577V3.92577C14.3345 3.97161 14.2654 3.9727 14.2204 3.98132L14.0792 4.00837C13.8626 4.04982 13.6815 4.19743 13.5972 4.40112L13.5738 4.45768C13.5564 4.49972 13.5466 4.56395 13.5011 4.56395V4.56395V4.56395C13.4667 4.56395 13.4458 4.52767 13.4282 4.49804L13.3991 4.4489C13.2621 4.21819 13.0101 4.08072 12.742 4.09048L12.598 4.09572V4.09572C12.554 4.09572 12.5172 4.02525 12.5475 3.99344C12.5488 3.99211 12.5502 3.99079 12.5516 3.98946L12.5516 3.98944ZM6.11373 4.84043C6.11373 4.84043 6.11373 4.84043 6.11373 4.84043L6.52607 4.88588C6.62945 4.89727 6.73122 4.85365 6.79425 4.77092L6.973 4.53634C7.00219 4.49802 7.0358 4.45758 7.08398 4.45753C7.08476 4.45753 7.08555 4.45753 7.08634 4.45753V4.45753C7.13214 4.45753 7.13781 4.52267 7.14794 4.56733L7.15408 4.59438C7.21237 4.85139 7.40543 5.0566 7.65841 5.13044L7.69184 5.1402C7.73572 5.15301 7.80436 5.15639 7.80436 5.2021V5.2021V5.2021C7.80436 5.24884 7.76006 5.27654 7.71828 5.29748L7.69061 5.31134C7.43579 5.43902 7.27974 5.70447 7.29211 5.98922L7.29488 6.05311C7.29488 6.07433 7.27178 6.09571 7.24852 6.09571H7.22542C7.20232 6.09571 7.20232 6.09571 7.17906 6.07448L7.09288 5.99969C6.88759 5.82154 6.60428 5.76331 6.34537 5.84606L6.30092 5.86027C6.25373 5.87535 6.19673 5.89533 6.16025 5.86181V5.86181V5.86181C6.1238 5.82832 6.17232 5.77581 6.19598 5.73233L6.21077 5.70517C6.33428 5.47822 6.30822 5.1991 6.14484 4.99893L6.06899 4.906C6.06812 4.90494 6.06717 4.90395 6.06619 4.903C6.05611 4.89331 6.05084 4.88358 6.0504 4.87386C6.04976 4.86004 6.07071 4.82981 6.08443 4.83159C6.0926 4.83265 6.10248 4.8353 6.11372 4.84044C6.11372 4.84044 6.11373 4.84044 6.11373 4.84043V4.84043ZM5.9517 8.32979C5.9517 8.32979 5.9517 8.32979 5.9517 8.32979C5.92844 8.32979 5.92844 8.32979 5.9517 8.32979C5.90534 8.32979 5.88224 8.30856 5.88224 8.28719L5.87382 8.1906C5.85056 7.92365 5.67893 7.69256 5.43011 7.59313L5.36729 7.56802C5.32501 7.55113 5.25693 7.54538 5.25693 7.49986V7.49986V7.49986C5.25693 7.45433 5.32501 7.44858 5.36729 7.43169L5.43011 7.40658C5.67893 7.30715 5.85056 7.07606 5.87382 6.80911L5.88224 6.71252C5.88224 6.6913 5.90534 6.66992 5.9286 6.66992C5.9517 6.66992 5.97496 6.66992 5.99806 6.69115L6.03842 6.73292C6.24325 6.9449 6.54411 7.03417 6.8314 6.9682L6.85143 6.9636C6.89985 6.95248 6.95717 6.93448 6.99376 6.96809V6.96809V6.96809C7.0303 7.00167 6.98017 7.05304 6.95332 7.09478L6.93989 7.11565C6.78987 7.34887 6.79306 7.64901 6.94802 7.87899L6.95199 7.88489C6.97974 7.92607 7.03033 7.9771 6.99376 8.0107V8.0107V8.0107C6.95717 8.04431 6.89985 8.02631 6.85143 8.01519L6.67295 7.9742C6.48475 7.93099 6.28785 7.99224 6.15738 8.13459L6.00871 8.29678C6.00183 8.3043 5.99131 8.30733 5.9827 8.31278C5.97292 8.31896 5.96821 8.3298 5.95171 8.3298C5.95171 8.3298 5.9517 8.3298 5.9517 8.32979V8.32979ZM7.1096 10.5C7.1096 10.5213 7.0865 10.5426 7.06324 10.5426H7.04014V10.5426C7.00272 10.5426 6.9815 10.5053 6.95882 10.4755L6.8726 10.3624C6.74663 10.197 6.5432 10.1098 6.33659 10.1326L6.09063 10.1597C6.06753 10.1597 6.04426 10.1597 6.02116 10.1385V10.1385C5.98861 10.1086 6.03643 10.056 6.06439 10.0217L6.14644 9.92121C6.28207 9.75505 6.31004 9.52569 6.21831 9.33181L6.14606 9.17909C6.13998 9.16624 6.13682 9.1522 6.13682 9.13798V9.13798C6.13682 9.11107 6.14749 9.08195 6.17388 9.07669C6.17815 9.07583 6.18243 9.07532 6.18671 9.07501C6.19965 9.07406 6.21258 9.07654 6.22494 9.08049L6.32195 9.1115C6.58085 9.19425 6.86417 9.13603 7.06945 8.95787L7.15563 8.88308C7.17873 8.86186 7.20199 8.86186 7.22509 8.86186C7.24819 8.86186 7.27145 8.88308 7.27145 8.90445L7.26647 9.01931C7.25545 9.27305 7.3945 9.50959 7.62157 9.62337L7.68961 9.65746C7.73447 9.67993 7.78093 9.70528 7.78093 9.75546V9.75546V9.75546C7.78093 9.8012 7.71219 9.80405 7.668 9.8159L7.64357 9.82245C7.36253 9.89779 7.15513 10.1359 7.11903 10.4246L7.1096 10.5ZM9.44851 11.0106C9.44851 11.0106 9.4485 11.0106 9.44849 11.0106L9.2787 11.1758C9.14278 11.308 9.09828 11.5082 9.16543 11.6856L9.21518 11.817C9.23167 11.8605 9.25132 11.9151 9.21702 11.9466V11.9466V11.9466C9.17886 11.9817 9.12358 11.9356 9.07648 11.914L9.03704 11.8959C8.78967 11.7822 8.50073 11.8072 8.27656 11.9617L8.21778 12.0022C8.18928 12.0218 8.16323 12.0529 8.12861 12.0529V12.0529V12.0529C8.11376 12.0529 8.09831 12.048 8.09103 12.035C8.08241 12.0197 8.08241 12.0044 8.08241 11.9891L8.08909 11.9379C8.12743 11.6444 7.99309 11.355 7.74411 11.1949V11.1949C7.70728 11.1712 7.66592 11.1439 7.66567 11.1001C7.66566 11.0986 7.66566 11.097 7.66566 11.0955V11.0955C7.66566 11.0496 7.73468 11.0486 7.77971 11.0399L7.90091 11.0167C8.12941 10.973 8.31964 10.8154 8.40512 10.599L8.42733 10.5428C8.44406 10.5004 8.45348 10.4361 8.49901 10.4361V10.4361V10.4361C8.54858 10.4361 8.58133 10.479 8.60663 10.5216L8.62362 10.5502C8.7609 10.7815 9.01356 10.9193 9.28231 10.9094L9.42526 10.9042C9.44836 10.9042 9.47163 10.9254 9.47163 10.9468C9.47163 10.9682 9.47163 10.9894 9.44853 11.0106C9.44853 11.0106 9.44852 11.0106 9.44851 11.0106V11.0106ZM9.4254 4.07443L9.21849 4.06685C8.98916 4.05844 8.77357 4.17601 8.65643 4.37334L8.59806 4.47168C8.57878 4.50415 8.56002 4.54251 8.52225 4.54251V4.54251V4.54251C8.47658 4.54251 8.46885 4.47777 8.45503 4.43424L8.44239 4.39445C8.3631 4.14477 8.15343 3.95856 7.89613 3.9093L7.82556 3.89579C7.78054 3.88717 7.71151 3.88608 7.71151 3.84024V3.84024C7.71151 3.8387 7.71151 3.83716 7.71152 3.83561C7.71177 3.79182 7.75313 3.76451 7.78997 3.74081V3.74081C8.03894 3.58068 8.17328 3.29135 8.13495 2.99782L8.12827 2.94664C8.12827 2.92541 8.12827 2.90404 8.15137 2.88282V2.88282C8.18641 2.85062 8.24181 2.89728 8.281 2.92427L8.38463 2.99568C8.57022 3.12355 8.80944 3.14426 9.01424 3.05017L9.1303 2.99685C9.17189 2.97775 9.21711 2.96786 9.26288 2.96786V2.96786V2.96786C9.3119 2.96786 9.27708 3.05517 9.25972 3.10102L9.24557 3.13839C9.15761 3.3707 9.2159 3.63306 9.39396 3.80625L9.49436 3.9039V3.9039C9.52858 3.93534 9.51023 3.99106 9.48613 4.0308C9.45967 4.07443 9.44253 4.07443 9.42538 4.07443H9.4254ZM11.8337 12.2021L11.6444 12.216C11.4036 12.2337 11.1909 12.3796 11.0876 12.5978L11.0526 12.6717C11.0332 12.7127 11.0222 12.7766 10.9768 12.7766V12.7766V12.7766C10.9314 12.7766 10.9204 12.7127 10.9009 12.6717L10.866 12.5978C10.7626 12.3796 10.5499 12.2337 10.3091 12.216L10.1198 12.2021C10.0967 12.2021 10.0735 12.1809 10.0735 12.1595C10.0735 12.1383 10.0735 12.1169 10.0966 12.0957L10.188 12.025C10.3992 11.8617 10.4912 11.5872 10.4211 11.3296L10.4165 11.3125C10.4042 11.2674 10.3867 11.2124 10.4211 11.1807V11.1807V11.1807C10.4594 11.1456 10.5134 11.1937 10.5585 11.2194L10.5714 11.2267C10.8229 11.3697 11.131 11.3697 11.3824 11.2267L11.3953 11.2194C11.4405 11.1937 11.4945 11.1456 11.5328 11.1807V11.1807V11.1807C11.5673 11.2124 11.5507 11.2676 11.5403 11.3132L11.5386 11.3208C11.4785 11.5858 11.5775 11.8615 11.7924 12.0278L11.8801 12.0957V12.0957C11.9132 12.126 11.8893 12.187 11.8463 12.2001C11.8421 12.2014 11.8379 12.2021 11.8338 12.2021H11.8337ZM11.9032 2.90422C11.9032 2.90422 11.9032 2.90422 11.9032 2.90423L11.5422 3.18356C11.4943 3.22056 11.4735 3.28271 11.4894 3.34105L11.5836 3.68738C11.5959 3.7325 11.6134 3.78754 11.579 3.81917V3.81917V3.81917C11.5407 3.85432 11.4864 3.80663 11.4408 3.78184L11.3332 3.72345C11.126 3.61094 10.8754 3.61341 10.6705 3.72997L10.5337 3.80775C10.5206 3.81524 10.5057 3.81917 10.4906 3.81917V3.81917C10.4675 3.81917 10.4675 3.81917 10.4442 3.79795V3.79795C10.4098 3.76632 10.4273 3.71127 10.4396 3.66616L10.4442 3.64903C10.5143 3.39141 10.4223 3.11694 10.2112 2.95357L10.12 2.88299C10.0969 2.86177 10.0969 2.8404 10.0969 2.81918C10.0969 2.79795 10.12 2.77658 10.1432 2.77658L10.3325 2.76265C10.5733 2.74494 10.786 2.5991 10.8894 2.38086L10.9243 2.30695C10.9438 2.26594 10.9548 2.20207 11.0002 2.20207V2.20207V2.20207C11.0456 2.20207 11.0566 2.26594 11.076 2.30695L11.111 2.38086C11.2143 2.5991 11.427 2.74494 11.6678 2.76265L11.8571 2.77658C11.8741 2.77658 11.8912 2.78806 11.8991 2.80264C11.9044 2.81264 11.9069 2.82424 11.9103 2.83507C11.9205 2.86741 11.9032 2.88581 11.9032 2.90421C11.9032 2.90422 11.9032 2.90422 11.9032 2.90422V2.90422ZM14.2885 11.1808C14.2885 11.1808 14.2885 11.1808 14.2885 11.1808L14.0741 11.3187C13.9222 11.4164 13.8403 11.5929 13.8636 11.7719L13.8948 12.0106C13.8948 12.0259 13.8948 12.0412 13.8862 12.0565C13.8789 12.0695 13.8635 12.0744 13.8486 12.0744V12.0744C13.8255 12.0744 13.8255 12.0744 13.8023 12.0532L13.6872 11.9739C13.4708 11.8248 13.1927 11.7984 12.9521 11.9041L12.8286 11.9584C12.814 11.9648 12.7981 11.9681 12.7821 11.9681V11.9681C12.753 11.9681 12.7201 11.9582 12.7152 11.9296C12.7151 11.9286 12.715 11.9277 12.7148 11.9268C12.7128 11.9121 12.7165 11.8972 12.7218 11.8833L12.7542 11.7976C12.8422 11.5653 12.7839 11.303 12.6058 11.1298L12.5054 11.0321C12.4823 11.0109 12.4823 10.9895 12.4823 10.9683C12.4823 10.9471 12.5054 10.9257 12.5287 10.9257L12.6716 10.9309C12.9404 10.9408 13.1931 10.803 13.3303 10.5717L13.3741 10.498C13.3817 10.4853 13.3907 10.4734 13.4022 10.4641C13.4048 10.4619 13.4075 10.4599 13.4101 10.4581C13.4363 10.4401 13.4804 10.455 13.4962 10.4825V10.4825C13.5027 10.4938 13.5033 10.5065 13.5072 10.5188L13.5348 10.6057C13.6141 10.8554 13.8238 11.0416 14.0811 11.0908L14.2155 11.1166C14.218 11.117 14.2206 11.1172 14.2232 11.1175C14.2262 11.1178 14.2291 11.1184 14.232 11.1193C14.2569 11.1273 14.3137 11.1477 14.2989 11.1692C14.2963 11.1729 14.2928 11.1768 14.2885 11.1808C14.2885 11.1808 14.2885 11.1808 14.2885 11.1808V11.1808ZM15.8864 10.1596C15.8864 10.1596 15.8864 10.1596 15.8864 10.1596L15.4814 10.1149C15.3735 10.103 15.2672 10.1486 15.2014 10.235L15.0182 10.4754C14.9955 10.5051 14.9743 10.5425 14.9369 10.5425V10.5425H14.9138V10.5425C14.868 10.5425 14.8623 10.4773 14.8522 10.4327L14.8461 10.4056C14.7878 10.1486 14.5947 9.9434 14.3417 9.86956L14.3083 9.8598C14.2644 9.84699 14.1958 9.84361 14.1958 9.7979V9.7979V9.7979C14.1958 9.75116 14.2401 9.72346 14.2819 9.70252L14.3095 9.68864C14.5644 9.56097 14.7204 9.29555 14.7082 9.0108L14.7054 8.94674C14.7054 8.92551 14.7285 8.90414 14.7518 8.90414V8.90414C14.7966 8.90414 14.8399 8.92031 14.8737 8.94967L14.9876 9.04851C15.1431 9.18346 15.3577 9.22756 15.5538 9.16488L15.6994 9.11835C15.7466 9.10327 15.8036 9.0833 15.84 9.11682V9.11682V9.11682C15.8765 9.1503 15.828 9.20282 15.8043 9.24629L15.7895 9.27346C15.666 9.50041 15.6921 9.77953 15.8554 9.97969L15.9297 10.0706C15.9316 10.073 15.9338 10.0752 15.9359 10.0774C15.9503 10.0922 15.9536 10.107 15.9458 10.1217C15.9405 10.1317 15.943 10.1472 15.9369 10.1567C15.9293 10.1686 15.9023 10.1742 15.8864 10.1596C15.8864 10.1596 15.8864 10.1596 15.8864 10.1596V10.1596ZM16.697 7.5638C16.697 7.56382 16.697 7.56383 16.697 7.56384L16.4218 7.67383C16.264 7.73688 16.1551 7.88343 16.1404 8.05272L16.1181 8.30857C16.1181 8.32979 16.095 8.35117 16.0717 8.35117H16.0486C16.0255 8.35117 16.0255 8.35117 16.0022 8.32994L15.9542 8.27749C15.7548 8.05993 15.454 7.96631 15.1664 8.03234L15.1487 8.0364C15.1003 8.04752 15.043 8.06552 15.0064 8.03191V8.03191V8.03191C14.9698 7.99831 15.0204 7.94729 15.0482 7.9061L15.0512 7.90152C15.2061 7.67164 15.2061 7.37078 15.0512 7.1409L15.0482 7.13631C15.0204 7.09513 14.9698 7.0441 15.0064 7.01051V7.01051V7.01051C15.043 6.97689 15.1003 6.9949 15.1487 7.00601L15.1664 7.01008C15.454 7.07612 15.7549 6.98252 15.9542 6.765L16.0022 6.71263C16.0253 6.6914 16.0486 6.6914 16.0717 6.6914C16.0948 6.6914 16.1181 6.71263 16.1181 6.734L16.1265 6.83059C16.1497 7.09754 16.3214 7.32863 16.5702 7.42806L16.6867 7.47464C16.6935 7.47735 16.7009 7.47832 16.7079 7.48026C16.7117 7.4813 16.7154 7.48284 16.7188 7.48478C16.741 7.49717 16.725 7.52893 16.7099 7.54932C16.7065 7.55397 16.7024 7.55887 16.697 7.56377C16.697 7.56378 16.697 7.56379 16.697 7.5638V7.5638Z" fill="#0D3794"/>
</svg>
